ffmpeg started on 2016-12-08 at 05:51:24
Report written to "Output/x264/results/ffmpeg/crowd_run_2160p50slower11000k.log"
Command line:
Tools/ffmpeg/ffmpeg -benchmark -y -i Input/y4m/crowd_run_2160p50.y4m -c:v libx264 -preset slower -b:v 11000k -an Output/x264/encoded/crowd_run_2160p50slower11000k.mkv
ffmpeg version N-82227-gdb23fde Copyright (c) 2000-2016 the FFmpeg developers
  built with gcc 5.4.0 (Ubuntu 5.4.0-6ubuntu1~16.04.2) 20160609
  configuration: --prefix=/home/jaroslav/ffmpeg_build --pkg-config-flags=--static --extra-cflags=-I/home/jaroslav/ffmpeg_build/include --extra-ldflags=-L/home/jaroslav/ffmpeg_build/lib --bindir=/home/jaroslav/bin --enable-gpl --enable-libass --enable-libfdk-aac --enable-libfreetype --enable-libmp3lame --enable-libopus --enable-libtheora --enable-libvorbis --enable-libvpx --enable-libx264 --enable-libx265 --enable-nvenc --enable-libmfx --enable-libxvid --enable-libgsm --enable-libopencore-amrnb --enable-version3 --enable-nonfree
  libavutil      55. 35.100 / 55. 35.100
  libavcodec     57. 66.101 / 57. 66.101
  libavformat    57. 57.100 / 57. 57.100
  libavdevice    57.  2.100 / 57.  2.100
  libavfilter     6. 66.100 /  6. 66.100
  libswscale      4.  3.100 /  4.  3.100
  libswresample   2.  4.100 /  2.  4.100
  libpostproc    54.  2.100 / 54.  2.100
Input #0, yuv4mpegpipe, from 'Input/y4m/crowd_run_2160p50.y4m':
  Duration: 00:00:10.00, start: 0.000000, bitrate: 4976642 kb/s
    Stream #0:0: Video: rawvideo (I420 / 0x30323449), yuv420p(progressive), 3840x2160, SAR 1:1 DAR 16:9, 50 fps, 50 tbr, 50 tbn, 50 tbc
[libx264 @ 0x31861c0] using SAR=1/1
[libx264 @ 0x31861c0] DPB size (8 frames, 259200 mbs) > level limit (5 frames, 184320 mbs)
[libx264 @ 0x31861c0] using cpu capabilities: MMX2 SSE2Fast SSSE3 SSE4.2 AVX FMA3 AVX2 LZCNT BMI2
[libx264 @ 0x31861c0] profile High, level 5.2
[libx264 @ 0x31861c0] 264 - core 148 - H.264/MPEG-4 AVC codec - Copyleft 2003-2016 - http://www.videolan.org/x264.html - options: cabac=1 ref=8 deblock=1:0:0 analyse=0x3:0x133 me=umh subme=9 psy=1 psy_rd=1.00:0.00 mixed_ref=1 me_range=16 chroma_me=1 trellis=2 8x8dct=1 cqm=0 deadzone=21,11 fast_pskip=1 chroma_qp_offset=-2 threads=6 lookahead_threads=1 sliced_threads=0 nr=0 decimate=1 interlaced=0 bluray_compat=0 constrained_intra=0 bframes=3 b_pyramid=2 b_adapt=2 b_bias=0 direct=3 weightb=1 open_gop=0 weightp=2 keyint=250 keyint_min=25 scenecut=40 intra_refresh=0 rc_lookahead=60 rc=abr mbtree=1 bitrate=11000 ratetol=1.0 qcomp=0.60 qpmin=0 qpmax=69 qpstep=4 ip_ratio=1.40 aq=1:1.00
Output #0, matroska, to 'Output/x264/encoded/crowd_run_2160p50slower11000k.mkv':
  Metadata:
    encoder         : Lavf57.57.100
    Stream #0:0: Video: h264 (libx264) (H264 / 0x34363248), yuv420p, 3840x2160 [SAR 1:1 DAR 16:9], q=-1--1, 11000 kb/s, 50 fps, 1k tbn, 50 tbc
    Metadata:
      encoder         : Lavc57.66.101 libx264
    Side data:
      cpb: bitrate max/min/avg: 0/0/11000000 buffer size: 0 vbv_delay: -1
Stream mapping:
  Stream #0:0 -> #0:0 (rawvideo (native) -> h264 (libx264))
Press [q] to stop, [?] for help
frame=   19 fps=0.0 q=0.0 size=       0kB time=00:00:00.00 bitrate=N/A speed=   0x    frame=   29 fps= 26 q=0.0 size=       0kB time=00:00:00.00 bitrate=N/A speed=   0x    frame=   40 fps= 25 q=0.0 size=       0kB time=00:00:00.00 bitrate=N/A speed=   0x    frame=   49 fps= 20 q=0.0 size=       0kB time=00:00:00.00 bitrate=N/A speed=   0x    frame=   51 fps= 15 q=0.0 size=       0kB time=00:00:00.00 bitrate=N/A speed=   0x    frame=   56 fps= 14 q=0.0 size=       0kB time=00:00:00.00 bitrate=N/A speed=   0x    frame=   61 fps= 14 q=0.0 size=       0kB time=00:00:00.00 bitrate=N/A speed=   0x    frame=   67 fps=8.7 q=0.0 size=       0kB time=00:00:00.00 bitrate=N/A speed=   0x    frame=   71 fps=8.6 q=33.0 size=       1kB time=-00:00:00.03 bitrate=N/A speed=N/A    frame=   72 fps=7.8 q=34.0 size=       1kB time=-00:00:00.01 bitrate=N/A speed=N/A    frame=   74 fps=7.4 q=37.0 size=       1kB time=00:00:00.02 bitrate= 280.4kbits/s speed=0.0021x    frame=   76 fps=7.1 q=50.0 size=       1kB time=00:00:00.06 bitrate=  96.5kbits/s speed=0.00567x    frame=   80 fps=6.8 q=50.0 size=       1kB time=00:00:00.14 bitrate=  41.8kbits/s speed=0.012x    frame=   83 fps=6.4 q=50.0 size=       1kB time=00:00:00.20 bitrate=  29.3kbits/s speed=0.0156x    frame=   87 fps=6.2 q=49.0 size=       1kB time=00:00:00.28 bitrate=  21.0kbits/s speed=0.0201x    frame=   90 fps=6.0 q=49.0 size=       1kB time=00:00:00.34 bitrate=  17.3kbits/s speed=0.0228x    frame=   92 fps=5.8 q=48.0 size=       1kB time=00:00:00.38 bitrate=  15.5kbits/s speed=0.0241x    frame=   97 fps=5.8 q=48.0 size=       1kB time=00:00:00.48 bitrate=  12.2kbits/s speed=0.0287x    frame=   98 fps=5.6 q=48.0 size=       1kB time=00:00:00.50 bitrate=  11.8kbits/s speed=0.0286x    frame=  101 fps=5.5 q=48.0 size=       1kB time=00:00:00.56 bitrate=  10.5kbits/s speed=0.0306x    frame=  104 fps=5.4 q=47.0 size=       1kB time=00:00:00.62 bitrate=   9.5kbits/s speed=0.0325x    frame=  106 fps=5.4 q=47.0 size=       1kB time=00:00:00.66 bitrate=   8.9kbits/s speed=0.0335x    frame=  108 fps=5.2 q=47.0 size=       1kB time=00:00:00.70 bitrate=   8.4kbits/s speed=0.034x    frame=  112 fps=5.3 q=47.0 size=       1kB time=00:00:00.78 bitrate=   7.5kbits/s speed=0.037x    frame=  113 fps=5.1 q=47.0 size=       1kB time=00:00:00.80 bitrate=   7.4kbits/s speed=0.0362x    frame=  117 fps=5.1 q=47.0 size=       1kB time=00:00:00.88 bitrate=   6.7kbits/s speed=0.0384x    frame=  119 fps=5.0 q=47.0 size=       1kB time=00:00:00.92 bitrate=   6.4kbits/s speed=0.039x    frame=  121 fps=4.9 q=47.0 size=       1kB time=00:00:00.96 bitrate=   6.1kbits/s speed=0.0392x    frame=  125 fps=4.9 q=47.0 size=       1kB time=00:00:01.04 bitrate=   5.7kbits/s speed=0.0409x    frame=  126 fps=4.8 q=47.0 size=       1kB time=00:00:01.06 bitrate=   5.5kbits/s speed=0.0407x    frame=  128 fps=4.8 q=46.0 size=       1kB time=00:00:01.10 bitrate=   5.3kbits/s speed=0.0412x    frame=  131 fps=4.7 q=46.0 size=       1kB time=00:00:01.16 bitrate=   5.1kbits/s speed=0.0419x    frame=  134 fps=4.7 q=46.0 size=       1kB time=00:00:01.22 bitrate=   4.8kbits/s speed=0.0427x    frame=  136 fps=4.7 q=46.0 size=       1kB time=00:00:01.26 bitrate=   4.7kbits/s speed=0.0432x    frame=  139 fps=4.6 q=46.0 size=       1kB time=00:00:01.32 bitrate=   4.5kbits/s speed=0.0439x    frame=  142 fps=4.6 q=46.0 size=       1kB time=00:00:01.38 bitrate=   4.3kbits/s speed=0.0443x    frame=  143 fps=4.5 q=46.0 size=       1kB time=00:00:01.40 bitrate=   4.2kbits/s speed=0.0442x    frame=  147 fps=4.5 q=46.0 size=       1kB time=00:00:01.48 bitrate=   4.0kbits/s speed=0.0455x    frame=  149 fps=4.5 q=46.0 size=       1kB time=00:00:01.52 bitrate=   3.9kbits/s speed=0.0456x    frame=  151 fps=4.4 q=46.0 size=       1kB time=00:00:01.56 bitrate=   3.8kbits/s speed=0.0458x    frame=  154 fps=4.4 q=46.0 size=       1kB time=00:00:01.62 bitrate=   3.6kbits/s speed=0.0468x    frame=  155 fps=4.4 q=46.0 size=       1kB time=00:00:01.64 bitrate=   3.6kbits/s speed=0.0463x    frame=  158 fps=4.4 q=46.0 size=       1kB time=00:00:01.70 bitrate=   3.5kbits/s speed=0.0469x    frame=  160 fps=4.3 q=46.0 size=       1kB time=00:00:01.74 bitrate=   3.4kbits/s speed=0.0473x    frame=  162 fps=4.3 q=46.0 size=       1kB time=00:00:01.78 bitrate=   3.3kbits/s speed=0.0474x    frame=  164 fps=4.3 q=45.0 size=       1kB time=00:00:01.82 bitrate=   3.2kbits/s speed=0.0478x    frame=  166 fps=4.3 q=45.0 size=       1kB time=00:00:01.86 bitrate=   3.2kbits/s speed=0.0477x    frame=  169 fps=4.3 q=45.0 size=       1kB time=00:00:01.92 bitrate=   3.1kbits/s speed=0.0484x    frame=  170 fps=4.2 q=45.0 size=       1kB time=00:00:01.94 bitrate=   3.0kbits/s speed=0.0481x    frame=  172 fps=4.2 q=45.0 size=       1kB time=00:00:01.98 bitrate=   3.0kbits/s speed=0.0483x    frame=  176 fps=4.2 q=45.0 size=       1kB time=00:00:02.06 bitrate=   2.9kbits/s speed=0.0495x    frame=  177 fps=4.2 q=45.0 size=       1kB time=00:00:02.08 bitrate=   2.8kbits/s speed=0.049x    frame=  178 fps=4.1 q=45.0 size=       1kB time=00:00:02.10 bitrate=   2.8kbits/s speed=0.0489x    frame=  183 fps=4.1 q=45.0 size=       1kB time=00:00:02.20 bitrate=   2.7kbits/s speed=0.0496x    frame=  185 fps=4.1 q=45.0 size=       1kB time=00:00:02.24 bitrate=   2.6kbits/s speed=0.0498x    frame=  187 fps=4.1 q=45.0 size=       1kB time=00:00:02.28 bitrate=   2.6kbits/s speed=0.0499x    frame=  190 fps=4.1 q=45.0 size=       1kB time=00:00:02.34 bitrate=   2.5kbits/s speed=0.0505x    frame=  191 fps=4.1 q=45.0 size=       1kB time=00:00:02.36 bitrate=   2.5kbits/s speed=0.0503x    frame=  193 fps=4.1 q=45.0 size=       1kB time=00:00:02.40 bitrate=   2.5kbits/s speed=0.0504x    frame=  195 fps=4.0 q=45.0 size=       1kB time=00:00:02.44 bitrate=   2.4kbits/s speed=0.0506x    frame=  196 fps=4.0 q=45.0 size=       1kB time=00:00:02.46 bitrate=   2.4kbits/s speed=0.0505x    frame=  199 fps=4.0 q=45.0 size=       1kB time=00:00:02.52 bitrate=   2.3kbits/s speed=0.0509x    frame=  201 fps=4.0 q=45.0 size=       1kB time=00:00:02.56 bitrate=   2.3kbits/s speed=0.0511x    frame=  203 fps=4.0 q=45.0 size=       1kB time=00:00:02.60 bitrate=   2.3kbits/s speed=0.051x    frame=  206 fps=4.0 q=45.0 size=       1kB time=00:00:02.66 bitrate=   2.2kbits/s speed=0.0513x    frame=  207 fps=3.9 q=45.0 size=       1kB time=00:00:02.68 bitrate=   2.2kbits/s speed=0.0512x    frame=  210 fps=3.9 q=45.0 size=       1kB time=00:00:02.74 bitrate=   2.1kbits/s speed=0.0514x    frame=  212 fps=3.9 q=45.0 size=       1kB time=00:00:02.78 bitrate=   2.1kbits/s speed=0.0516x    frame=  214 fps=3.9 q=45.0 size=       1kB time=00:00:02.82 bitrate=   2.1kbits/s speed=0.0516x    frame=  217 fps=3.9 q=45.0 size=       1kB time=00:00:02.88 bitrate=   2.0kbits/s speed=0.0516x    frame=  219 fps=3.9 q=45.0 size=       1kB time=00:00:02.92 bitrate=   2.0kbits/s speed=0.0516x    frame=  223 fps=3.9 q=45.0 size=       1kB time=00:00:03.00 bitrate=   2.0kbits/s speed=0.0523x    frame=  225 fps=3.9 q=45.0 size=       1kB time=00:00:03.04 bitrate=   1.9kbits/s speed=0.0521x    frame=  227 fps=3.8 q=45.0 size=       1kB time=00:00:03.08 bitrate=   1.9kbits/s speed=0.0522x    frame=  229 fps=3.8 q=45.0 size=       1kB time=00:00:03.12 bitrate=   1.9kbits/s speed=0.0523x    frame=  232 fps=3.8 q=45.0 size=       1kB time=00:00:03.18 bitrate=   1.9kbits/s speed=0.0522x    frame=  234 fps=3.8 q=45.0 size=       1kB time=00:00:03.22 bitrate=   1.8kbits/s speed=0.0524x    frame=  236 fps=3.8 q=45.0 size=       1kB time=00:00:03.26 bitrate=   1.8kbits/s speed=0.0525x    frame=  238 fps=3.8 q=45.0 size=       1kB time=00:00:03.30 bitrate=   1.8kbits/s speed=0.0527x    frame=  240 fps=3.8 q=45.0 size=       1kB time=00:00:03.34 bitrate=   1.8kbits/s speed=0.0526x    frame=  243 fps=3.8 q=45.0 size=       1kB time=00:00:03.40 bitrate=   1.7kbits/s speed=0.0531x    frame=  244 fps=3.8 q=45.0 size=       1kB time=00:00:03.42 bitrate=   1.7kbits/s speed=0.0527x    frame=  246 fps=3.8 q=45.0 size=       1kB time=00:00:03.46 bitrate=   1.7kbits/s speed=0.0529x    frame=  249 fps=3.8 q=45.0 size=       1kB time=00:00:03.52 bitrate=   1.7kbits/s speed=0.0532x    frame=  251 fps=3.7 q=45.0 size=       1kB time=00:00:03.56 bitrate=   1.7kbits/s speed=0.0528x    frame=  255 fps=3.7 q=45.0 size=    5157kB time=00:00:03.64 bitrate=11603.8kbits/s speed=0.0533x    frame=  257 fps=3.7 q=45.0 size=    5157kB time=00:00:03.68 bitrate=11477.7kbits/s speed=0.0533x    frame=  259 fps=3.7 q=45.0 size=    5157kB time=00:00:03.72 bitrate=11354.3kbits/s speed=0.0532x    frame=  261 fps=3.7 q=45.0 size=    5157kB time=00:00:03.76 bitrate=11233.5kbits/s speed=0.0533x    frame=  263 fps=3.7 q=45.0 size=    5157kB time=00:00:03.80 bitrate=11115.3kbits/s speed=0.0535x    frame=  266 fps=3.7 q=45.0 size=    5157kB time=00:00:03.86 bitrate=10942.6kbits/s speed=0.0533x    frame=  268 fps=3.7 q=45.0 size=    5157kB time=00:00:03.90 bitrate=10830.4kbits/s speed=0.0534x    frame=  271 fps=3.7 q=45.0 size=    5157kB time=00:00:03.96 bitrate=10666.3kbits/s speed=0.0537x    frame=  273 fps=3.7 q=45.0 size=    5157kB time=00:00:04.00 bitrate=10559.7kbits/s speed=0.0539x    frame=  274 fps=3.6 q=45.0 size=    5157kB time=00:00:04.02 bitrate=10507.2kbits/s speed=0.0535x    frame=  277 fps=3.7 q=45.0 size=    5157kB time=00:00:04.08 bitrate=10352.7kbits/s speed=0.0539x    frame=  278 fps=3.6 q=45.0 size=    5157kB time=00:00:04.10 bitrate=10302.2kbits/s speed=0.0537x    frame=  281 fps=3.6 q=45.0 size=    5157kB time=00:00:04.16 bitrate=10153.6kbits/s speed=0.0538x    frame=  282 fps=3.6 q=45.0 size=    5157kB time=00:00:04.18 bitrate=10105.1kbits/s speed=0.0537x    frame=  285 fps=3.6 q=45.0 size=    5157kB time=00:00:04.24 bitrate=9962.1kbits/s speed=0.0538x    frame=  287 fps=3.6 q=45.0 size=    5157kB time=00:00:04.28 bitrate=9869.0kbits/s speed=0.0539x    frame=  289 fps=3.6 q=45.0 size=    5157kB time=00:00:04.32 bitrate=9777.7kbits/s speed=0.0538x    frame=  291 fps=3.6 q=45.0 size=    5157kB time=00:00:04.36 bitrate=9688.0kbits/s speed=0.0538x    frame=  294 fps=3.6 q=45.0 size=    5157kB time=00:00:04.42 bitrate=9556.5kbits/s speed=0.0541x    frame=  296 fps=3.6 q=45.0 size=    5157kB time=00:00:04.46 bitrate=9470.8kbits/s speed=0.0542x    frame=  297 fps=3.6 q=45.0 size=    5157kB time=00:00:04.48 bitrate=9428.5kbits/s speed=0.054x    frame=  299 fps=3.6 q=45.0 size=    5157kB time=00:00:04.52 bitrate=9345.1kbits/s speed=0.0541x    frame=  301 fps=3.6 q=45.0 size=    5157kB time=00:00:04.56 bitrate=9263.2kbits/s speed=0.054x    frame=  304 fps=3.5 q=45.0 size=    5157kB time=00:00:04.62 bitrate=9142.9kbits/s speed=0.0539x    frame=  306 fps=3.5 q=45.0 size=    5157kB time=00:00:04.66 bitrate=9064.4kbits/s speed=0.0539x    frame=  309 fps=3.6 q=45.0 size=    5157kB time=00:00:04.72 bitrate=8949.2kbits/s speed=0.0542x    frame=  310 fps=3.5 q=45.0 size=    5157kB time=00:00:04.74 bitrate=8911.5kbits/s speed=0.0541x    frame=  312 fps=3.5 q=45.0 size=    5157kB time=00:00:04.78 bitrate=8836.9kbits/s speed=0.054x    frame=  314 fps=3.5 q=45.0 size=    5157kB time=00:00:04.82 bitrate=8763.6kbits/s speed=0.0541x    frame=  317 fps=3.5 q=45.0 size=    5157kB time=00:00:04.88 bitrate=8655.9kbits/s speed=0.0543x    frame=  319 fps=3.5 q=45.0 size=    5157kB time=00:00:04.92 bitrate=8585.5kbits/s speed=0.0544x    frame=  320 fps=3.5 q=45.0 size=    5157kB time=00:00:04.94 bitrate=8550.8kbits/s speed=0.0543x    frame=  326 fps=3.6 q=45.0 size=    6845kB time=00:00:05.06 bitrate=11078.9kbits/s speed=0.0553x    frame=  328 fps=3.6 q=45.0 size=    6845kB time=00:00:05.10 bitrate=10992.0kbits/s speed=0.0554x    frame=  329 fps=3.5 q=45.0 size=    6845kB time=00:00:05.12 bitrate=10949.1kbits/s speed=0.0552x    frame=  331 fps=3.5 q=45.0 size=    6845kB time=00:00:05.16 bitrate=10864.2kbits/s speed=0.0552x    frame=  333 fps=3.5 q=45.0 size=    6845kB time=00:00:05.20 bitrate=10780.7kbits/s speed=0.0554x    frame=  336 fps=3.5 q=45.0 size=    6845kB time=00:00:05.26 bitrate=10657.7kbits/s speed=0.0556x    frame=  337 fps=3.5 q=45.0 size=    6845kB time=00:00:05.28 bitrate=10617.4kbits/s speed=0.0555x    frame=  339 fps=3.5 q=45.0 size=    6845kB time=00:00:05.32 bitrate=10537.6kbits/s speed=0.0555x    frame=  341 fps=3.5 q=45.0 size=    6845kB time=00:00:05.36 bitrate=10458.9kbits/s speed=0.0553x    frame=  345 fps=3.5 q=45.0 size=    6845kB time=00:00:05.44 bitrate=10305.1kbits/s speed=0.0556x    frame=  347 fps=3.5 q=45.0 size=    6845kB time=00:00:05.48 bitrate=10229.9kbits/s speed=0.0557x    frame=  348 fps=3.5 q=45.0 size=    6845kB time=00:00:05.50 bitrate=10192.7kbits/s speed=0.0555x    frame=  350 fps=3.5 q=45.0 size=    6845kB time=00:00:05.54 bitrate=10119.2kbits/s speed=0.0554x    frame=  353 fps=3.5 q=45.0 size=    6845kB time=00:00:05.60 bitrate=10010.8kbits/s speed=0.0555x    frame=  356 fps=3.5 q=45.0 size=    6845kB time=00:00:05.66 bitrate=9904.7kbits/s speed=0.0555x    frame=  358 fps=3.5 q=45.0 size=    6845kB time=00:00:05.70 bitrate=9835.2kbits/s speed=0.0556x    frame=  360 fps=3.5 q=45.0 size=    6845kB time=00:00:05.74 bitrate=9766.6kbits/s speed=0.0556x    frame=  362 fps=3.5 q=45.0 size=    6845kB time=00:00:05.78 bitrate=9699.1kbits/s speed=0.0557x    frame=  364 fps=3.5 q=45.0 size=    6845kB time=00:00:05.82 bitrate=9632.4kbits/s speed=0.0555x    frame=  366 fps=3.5 q=45.0 size=    6845kB time=00:00:05.86 bitrate=9566.7kbits/s speed=0.0555x    frame=  368 fps=3.5 q=45.0 size=    6845kB time=00:00:05.90 bitrate=9501.8kbits/s speed=0.0556x    frame=  370 fps=3.5 q=45.0 size=    6845kB time=00:00:05.94 bitrate=9437.9kbits/s speed=0.0557x    frame=  372 fps=3.5 q=45.0 size=    6845kB time=00:00:05.98 bitrate=9374.7kbits/s speed=0.0556x    frame=  376 fps=3.5 q=45.0 size=    6845kB time=00:00:06.06 bitrate=9251.0kbits/s speed=0.0559x    frame=  378 fps=3.5 q=45.0 size=    6845kB time=00:00:06.10 bitrate=9190.3kbits/s speed=0.0559x    frame=  379 fps=3.4 q=45.0 size=    6845kB time=00:00:06.12 bitrate=9160.3kbits/s speed=0.0557x    frame=  381 fps=3.4 q=45.0 size=    6845kB time=00:00:06.16 bitrate=9100.8kbits/s speed=0.0558x    frame=  384 fps=3.5 q=45.0 size=    6845kB time=00:00:06.22 bitrate=9013.1kbits/s speed=0.056x    frame=  385 fps=3.4 q=45.0 size=    6845kB time=00:00:06.24 bitrate=8984.2kbits/s speed=0.0558x    frame=  386 fps=3.4 q=45.0 size=    6845kB time=00:00:06.26 bitrate=8955.5kbits/s speed=0.0556x    frame=  390 fps=3.4 q=45.0 size=    6845kB time=00:00:06.34 bitrate=8842.5kbits/s speed=0.056x    frame=  392 fps=3.4 q=45.0 size=    6845kB time=00:00:06.38 bitrate=8787.1kbits/s speed=0.056x    frame=  393 fps=3.4 q=45.0 size=    6845kB time=00:00:06.40 bitrate=8759.6kbits/s speed=0.0559x    frame=  395 fps=3.4 q=45.0 size=    6845kB time=00:00:06.44 bitrate=8705.2kbits/s speed=0.0558x    frame=  398 fps=3.4 q=45.0 size=    6845kB time=00:00:06.50 bitrate=8624.9kbits/s speed=0.056x    frame=  400 fps=3.4 q=45.0 size=    6845kB time=00:00:06.54 bitrate=8572.1kbits/s speed=0.056x    frame=  402 fps=3.4 q=45.0 size=    6845kB time=00:00:06.58 bitrate=8520.0kbits/s speed=0.0559x    frame=  404 fps=3.4 q=45.0 size=    6845kB time=00:00:06.62 bitrate=8468.6kbits/s speed=0.056x    frame=  406 fps=3.4 q=45.0 size=    6845kB time=00:00:06.66 bitrate=8417.7kbits/s speed=0.0558x    frame=  408 fps=3.4 q=45.0 size=    6845kB time=00:00:06.70 bitrate=8367.5kbits/s speed=0.0559x    frame=  411 fps=3.4 q=45.0 size=    6845kB time=00:00:06.76 bitrate=8293.2kbits/s speed=0.0561x    frame=  413 fps=3.4 q=45.0 size=    6845kB time=00:00:06.80 bitrate=8244.4kbits/s speed=0.0562x    frame=  414 fps=3.4 q=45.0 size=    6845kB time=00:00:06.82 bitrate=8220.2kbits/s speed=0.0559x    frame=  415 fps=3.4 q=45.0 size=    6845kB time=00:00:06.84 bitrate=8196.2kbits/s speed=0.0559x    frame=  419 fps=3.4 q=45.0 size=    6845kB time=00:00:06.92 bitrate=8101.5kbits/s speed=0.0562x    frame=  421 fps=3.4 q=45.0 size=    6845kB time=00:00:06.96 bitrate=8054.9kbits/s speed=0.0561x    frame=  423 fps=3.4 q=45.0 size=    6845kB time=00:00:07.00 bitrate=8008.9kbits/s speed=0.0561x    frame=  425 fps=3.4 q=45.0 size=    6845kB time=00:00:07.04 bitrate=7963.4kbits/s speed=0.0561x    frame=  427 fps=3.4 q=45.0 size=    6845kB time=00:00:07.08 bitrate=7918.4kbits/s speed=0.0562x    frame=  428 fps=3.4 q=45.0 size=    6845kB time=00:00:07.10 bitrate=7896.1kbits/s speed=0.0561x    frame=  431 fps=3.4 q=45.0 size=    6845kB time=00:00:07.16 bitrate=7830.0kbits/s speed=0.0561x    frame=  433 fps=3.4 q=45.0 size=    6845kB time=00:00:07.20 bitrate=7786.5kbits/s speed=0.0561x    frame=  436 fps=3.4 q=45.0 size=    6845kB time=00:00:07.26 bitrate=7722.1kbits/s speed=0.0561x    frame=  439 fps=3.4 q=45.0 size=    6845kB time=00:00:07.32 bitrate=7658.8kbits/s speed=0.0562x    frame=  441 fps=3.4 q=45.0 size=    6845kB time=00:00:07.36 bitrate=7617.2kbits/s speed=0.0563x    frame=  442 fps=3.4 q=45.0 size=    6845kB time=00:00:07.38 bitrate=7596.6kbits/s speed=0.0561x    frame=  444 fps=3.4 q=45.0 size=    6845kB time=00:00:07.42 bitrate=7555.6kbits/s speed=0.0561x    frame=  447 fps=3.4 q=45.0 size=    6845kB time=00:00:07.48 bitrate=7495.0kbits/s speed=0.0563x    frame=  450 fps=3.4 q=45.0 size=    6845kB time=00:00:07.54 bitrate=7435.4kbits/s speed=0.0562x    frame=  451 fps=3.3 q=45.0 size=    6845kB time=00:00:07.56 bitrate=7415.7kbits/s speed=0.0561x    frame=  454 fps=3.4 q=45.0 size=    6845kB time=00:00:07.62 bitrate=7357.3kbits/s speed=0.0563x    frame=  456 fps=3.4 q=45.0 size=    6845kB time=00:00:07.66 bitrate=7318.9kbits/s speed=0.0564x    frame=  458 fps=3.3 q=45.0 size=    6845kB time=00:00:07.70 bitrate=7280.9kbits/s speed=0.0562x    frame=  459 fps=3.3 q=45.0 size=    6845kB time=00:00:07.72 bitrate=7262.1kbits/s speed=0.0561x    frame=  463 fps=3.3 q=45.0 size=    6845kB time=00:00:07.80 bitrate=7187.6kbits/s speed=0.0564x    frame=  465 fps=3.3 q=45.0 size=    6845kB time=00:00:07.84 bitrate=7150.9kbits/s speed=0.0563x    frame=  466 fps=3.3 q=45.0 size=    6845kB time=00:00:07.86 bitrate=7132.7kbits/s speed=0.0562x    frame=  469 fps=3.3 q=44.0 size=    6845kB time=00:00:07.92 bitrate=7078.7kbits/s speed=0.0564x    frame=  471 fps=3.3 q=44.0 size=    6845kB time=00:00:07.96 bitrate=7043.1kbits/s speed=0.0563x    frame=  474 fps=3.3 q=44.0 size=    6845kB time=00:00:08.02 bitrate=6990.4kbits/s speed=0.0562x    frame=  476 fps=3.3 q=44.0 size=    6845kB time=00:00:08.06 bitrate=6955.8kbits/s speed=0.0562x    frame=  479 fps=3.3 q=44.0 size=    6845kB time=00:00:08.12 bitrate=6904.4kbits/s speed=0.0564x    frame=  481 fps=3.3 q=44.0 size=    6845kB time=00:00:08.16 bitrate=6870.5kbits/s speed=0.0564x    frame=  483 fps=3.3 q=44.0 size=    6845kB time=00:00:08.20 bitrate=6837.0kbits/s speed=0.0563x    frame=  485 fps=3.3 q=44.0 size=    6845kB time=00:00:08.24 bitrate=6803.8kbits/s speed=0.0563x    frame=  487 fps=3.3 q=44.0 size=    6845kB time=00:00:08.28 bitrate=6771.0kbits/s speed=0.0564x    frame=  489 fps=3.3 q=44.0 size=    6845kB time=00:00:08.32 bitrate=6738.4kbits/s speed=0.0563x    frame=  492 fps=3.3 q=44.0 size=    6845kB time=00:00:08.38 bitrate=6690.2kbits/s speed=0.0564x    frame=  493 fps=3.3 q=44.0 size=    6845kB time=00:00:08.40 bitrate=6674.2kbits/s speed=0.0563x    frame=  496 fps=3.3 q=44.0 size=    6845kB time=00:00:08.46 bitrate=6626.9kbits/s speed=0.0564x    frame=  498 fps=3.3 q=44.0 size=    6845kB time=00:00:08.50 bitrate=6595.7kbits/s speed=0.0565x    frame=  500 fps=3.3 q=44.0 size=    6845kB time=00:00:08.54 bitrate=6564.8kbits/s speed=0.0564x    frame=  500 fps=2.9 q=-1.0 Lsize=   13395kB time=00:00:09.94 bitrate=11038.1kbits/s speed=0.0572x    
video:13390kB audio:0kB subtitle:0kB other streams:0kB global headers:0kB muxing overhead: 0.033672%
bench: utime=653.008s
bench: maxrss=2521372kB
[libx264 @ 0x31861c0] frame I:2     Avg QP:34.43  size:398218
[libx264 @ 0x31861c0] frame P:134   Avg QP:43.73  size: 52097
[libx264 @ 0x31861c0] frame B:364   Avg QP:46.78  size: 16301
[libx264 @ 0x31861c0] consecutive B-frames:  0.4%  2.8% 14.4% 82.4%
[libx264 @ 0x31861c0] mb I  I16..4: 20.9% 72.5%  6.6%
[libx264 @ 0x31861c0] mb P  I16..4:  2.0%  3.9%  0.0%  P16..4: 36.0%  3.5%  5.2%  0.0%  0.0%    skip:49.4%
[libx264 @ 0x31861c0] mb B  I16..4:  0.0%  0.1%  0.0%  B16..8: 41.7%  1.2%  0.1%  direct: 0.2%  skip:56.7%  L0:42.7% L1:57.0% BI: 0.3%
[libx264 @ 0x31861c0] final ratefactor: 36.46
[libx264 @ 0x31861c0] 8x8 transform intra:67.7% inter:88.4%
[libx264 @ 0x31861c0] direct mvs  spatial:99.2% temporal:0.8%
[libx264 @ 0x31861c0] coded y,uvDC,uvAC intra: 31.6% 48.1% 15.9% inter: 2.4% 4.5% 0.1%
[libx264 @ 0x31861c0] i16 v,h,dc,p: 36% 22%  7% 35%
[libx264 @ 0x31861c0] i8 v,h,dc,ddl,ddr,vr,hd,vl,hu:  8%  4%  7% 12% 16% 15% 15% 13% 11%
[libx264 @ 0x31861c0] i4 v,h,dc,ddl,ddr,vr,hd,vl,hu:  7%  4%  1% 12% 17% 16% 15% 13% 15%
[libx264 @ 0x31861c0] i8c dc,h,v,p: 52% 17% 17% 15%
[libx264 @ 0x31861c0] Weighted P-Frames: Y:0.7% UV:0.0%
[libx264 @ 0x31861c0] ref P L0: 63.4%  5.3% 14.5%  4.2%  3.8%  3.2%  3.4%  2.2%  0.0%
[libx264 @ 0x31861c0] ref B L0: 94.8%  3.0%  1.1%  0.4%  0.3%  0.2%  0.2%
[libx264 @ 0x31861c0] ref B L1: 99.0%  1.0%
[libx264 @ 0x31861c0] kb/s:10968.76
